o Button
v -0.3 0.15 -0.3
v -0.3 0.15 0
v -0.264644660940673 0.1 -0.0353553390593274
v -0.264644660940673 0.1 -0.264644660940673
v 0 0.15 0
v -0.0353553390593274 0.1 -0.0353553390593274
v 0 0.15 -0.3
v -0.0353553390593274 0.1 -0.264644660940673
v 0.6 0.15 -0.9
v 0.6 0.15 -0.6
v 0.635355339059327 0.1 -0.635355339059327
v 0.635355339059327 0.1 -0.864644660940672
v 0.9 0.15 -0.6
v 0.864644660940673 0.1 -0.635355339059327
v 0.9 0.15 -0.9
v 0.864644660940673 0.0999999999999999 -0.864644660940673
v 0.3 0.15 -0.9
v 0.3 0.15 -0.6
v 0.335355339059327 0.1 -0.635355339059327
v 0.335355339059327 0.1 -0.864644660940672
v 0.564644660940672 0.1 -0.635355339059327
v 0.564644660940673 0.1 -0.864644660940673
v 0 0.15 -0.9
v 0 0.15 -0.6
v 0.0353553390593274 0.1 -0.635355339059327
v 0.0353553390593274 0.1 -0.864644660940672
v 0.264644660940673 0.1 -0.635355339059327
v 0.264644660940673 0.1 -0.864644660940673
v -0.3 0.15 -0.9
v -0.3 0.15 -0.6
v -0.264644660940673 0.1 -0.635355339059327
v -0.264644660940673 0.1 -0.864644660940672
v -0.0353553390593274 0.1 -0.635355339059327
v -0.0353553390593274 0.1 -0.864644660940673
v -0.6 0.15 -0.9
v -0.6 0.15 -0.6
v -0.564644660940672 0.1 -0.635355339059327
v -0.564644660940673 0.0999999999999999 -0.864644660940672
v -0.335355339059327 0.1 -0.635355339059327
v -0.335355339059327 0.1 -0.864644660940673
v -0.9 0.15 -0.9
v -0.9 0.15 -0.6
v -0.864644660940672 0.1 -0.635355339059327
v -0.864644660940673 0.0999999999999999 -0.864644660940672
v -0.635355339059327 0.1 -0.635355339059327
v -0.635355339059327 0.1 -0.864644660940673
v -0.9 0.15 -0.3
v -0.864644660940672 0.1 -0.335355339059327
v -0.864644660940673 0.1 -0.564644660940673
v -0.6 0.15 -0.3
v -0.635355339059327 0.1 -0.335355339059327
v -0.635355339059327 0.1 -0.564644660940672
v -0.335355339059327 0.1 -0.335355339059327
v -0.564644660940672 0.1 -0.335355339059327
v -0.335355339059327 0.1 -0.564644660940672
v -0.564644660940672 0.1 -0.564644660940672
v -0.264644660940673 0.1 -0.335355339059327
v -0.264644660940673 0.1 -0.564644660940672
v -0.0353553390593274 0.1 -0.335355339059327
v -0.0353553390593274 0.1 -0.564644660940672
v 0.0353553390593274 0.1 -0.335355339059327
v 0.0353553390593274 0.1 -0.564644660940672
v 0.3 0.15 -0.3
v 0.264644660940673 0.1 -0.335355339059327
v 0.264644660940673 0.1 -0.564644660940672
v 0.335355339059327 0.1 -0.564644660940672
v 0.564644660940672 0.1 -0.564644660940672
v 0.335355339059327 0.1 -0.335355339059327
v 0.6 0.15 -0.3
v 0.564644660940672 0.1 -0.335355339059327
v 0.9 0.15 -0.3
v 0.864644660940673 0.1 -0.335355339059327
v 0.635355339059327 0.1 -0.335355339059327
v 0.864644660940672 0.0999999999999999 -0.564644660940672
v 0.635355339059327 0.1 -0.564644660940672
v -0.864644660940673 0.1 -0.264644660940673
v -0.635355339059327 0.1 -0.264644660940673
v -0.9 0.15 0
v -0.864644660940672 0.1 -0.0353553390593274
v -0.6 0.15 0
v -0.635355339059327 0.1 -0.0353553390593274
v -0.335355339059327 0.1 -0.0353553390593274
v -0.564644660940672 0.1 -0.0353553390593274
v -0.335355339059327 0.1 -0.264644660940673
v -0.564644660940672 0.1 -0.264644660940673
v 0.0353553390593274 0.1 -0.0353553390593274
v 0.0353553390593274 0.1 -0.264644660940673
v 0.3 0.15 0
v 0.264644660940673 0.1 -0.0353553390593274
v 0.264644660940673 0.1 -0.264644660940673
v 0.335355339059327 0.1 -0.264644660940673
v 0.564644660940672 0.1 -0.264644660940673
v 0.335355339059327 0.1 -0.0353553390593274
v 0.6 0.15 0
v 0.564644660940672 0.1 -0.0353553390593274
v 0.9 0.15 0
v 0.864644660940673 0.1 -0.0353553390593274
v 0.635355339059327 0.1 -0.0353553390593274
v 0.864644660940672 0.1 -0.264644660940673
v 0.635355339059327 0.1 -0.264644660940673
v -0.864644660940673 0.1 0.0353553390593274
v -0.635355339059327 0.1 0.0353553390593274
v -0.9 0.15 0.3
v -0.864644660940672 0.1 0.264644660940673
v -0.6 0.15 0.3
v -0.635355339059327 0.1 0.264644660940673
v -0.3 0.15 0.3
v -0.335355339059327 0.1 0.264644660940673
v -0.564644660940672 0.1 0.264644660940673
v -0.335355339059327 0.1 0.0353553390593274
v -0.564644660940672 0.1 0.0353553390593274
v 0 0.15 0.3
v -0.0353553390593274 0.1 0.264644660940673
v -0.264644660940673 0.1 0.264644660940673
v -0.0353553390593274 0.1 0.0353553390593274
v -0.264644660940673 0.1 0.0353553390593274
v 0.0353553390593274 0.1 0.0353553390593274
v 0.264644660940673 0.1 0.0353553390593274
v 0.0353553390593274 0.1 0.264644660940673
v 0.3 0.15 0.3
v 0.264644660940673 0.1 0.264644660940673
v 0.335355339059327 0.1 0.0353553390593274
v 0.564644660940672 0.1 0.0353553390593274
v 0.335355339059327 0.1 0.264644660940673
v 0.6 0.15 0.3
v 0.564644660940672 0.1 0.264644660940673
v 0.9 0.15 0.3
v 0.864644660940673 0.1 0.264644660940673
v 0.635355339059327 0.1 0.264644660940673
v 0.864644660940672 0.1 0.0353553390593274
v 0.635355339059327 0.1 0.0353553390593274
v -0.6 0.15 0.6
v -0.635355339059327 0.1 0.335355339059327
v -0.635355339059327 0.1 0.564644660940672
v -0.864644660940673 0.1 0.335355339059327
v -0.9 0.15 0.6
v -0.864644660940672 0.0999999999999999 0.564644660940672
v -0.3 0.15 0.6
v -0.335355339059327 0.1 0.335355339059327
v -0.335355339059327 0.1 0.564644660940672
v -0.564644660940672 0.1 0.335355339059327
v -0.564644660940672 0.1 0.564644660940672
v 0 0.15 0.6
v -0.0353553390593274 0.1 0.335355339059327
v -0.0353553390593274 0.1 0.564644660940672
v -0.264644660940673 0.1 0.335355339059327
v -0.264644660940673 0.1 0.564644660940672
v 0.3 0.15 0.6
v 0.264644660940673 0.1 0.335355339059327
v 0.264644660940673 0.1 0.564644660940672
v 0.0353553390593274 0.1 0.335355339059327
v 0.0353553390593274 0.1 0.564644660940672
v 0.335355339059327 0.1 0.335355339059327
v 0.564644660940672 0.1 0.335355339059327
v 0.335355339059327 0.1 0.564644660940672
v 0.6 0.15 0.6
v 0.564644660940672 0.1 0.564644660940672
v 0.9 0.15 0.6
v 0.864644660940673 0.1 0.564644660940673
v 0.635355339059327 0.1 0.564644660940672
v 0.864644660940672 0.1 0.335355339059327
v 0.635355339059327 0.1 0.335355339059327
v -0.9 0.15 0.9
v -0.864644660940673 0.0999999999999999 0.864644660940673
v -0.864644660940673 0.1 0.635355339059327
v -0.6 0.15 0.9
v -0.635355339059327 0.1 0.864644660940672
v -0.635355339059327 0.1 0.635355339059327
v -0.564644660940673 0.1 0.864644660940673
v -0.564644660940672 0.1 0.635355339059327
v -0.3 0.15 0.9
v -0.335355339059327 0.1 0.864644660940672
v -0.335355339059327 0.1 0.635355339059327
v -0.264644660940673 0.1 0.864644660940673
v -0.264644660940673 0.1 0.635355339059327
v 0 0.15 0.9
v -0.0353553390593274 0.1 0.864644660940672
v -0.0353553390593274 0.1 0.635355339059327
v 0.0353553390593274 0.1 0.864644660940673
v 0.0353553390593274 0.1 0.635355339059327
v 0.3 0.15 0.9
v 0.264644660940673 0.1 0.864644660940672
v 0.264644660940673 0.1 0.635355339059327
v 0.335355339059327 0.1 0.635355339059327
v 0.564644660940672 0.1 0.635355339059327
v 0.335355339059327 0.1 0.864644660940673
v 0.6 0.15 0.9
v 0.564644660940673 0.0999999999999999 0.864644660940672
v 0.9 0.15 0.9
v 0.864644660940673 0.0999999999999999 0.864644660940672
v 0.635355339059327 0.1 0.864644660940673
v 0.864644660940672 0.1 0.635355339059327
v 0.635355339059327 0.1 0.635355339059327
vn 0.816496580927725 0.577350269189627 0
vn 0.816496580927725 0.577350269189627 0
vn 0 0 0
vn 0 0.577350269189626 -0.816496580927726
vn 0 0.577350269189626 -0.816496580927726
vn -0.816496580927726 0.577350269189626 0
vn -0.816496580927726 0.577350269189626 0
vn 0 0.577350269189627 0.816496580927725
vn 0 0.577350269189627 0.816496580927725
vn 0.816496580927728 0.577350269189624 0
vn 0.816496580927728 0.577350269189624 0
vn 0 0.577350269189624 -0.816496580927728
vn 0 0.577350269189625 -0.816496580927727
vn -4.65237624435764E-16 0.577350269189625 -0.816496580927726
vn -4.65237624435764E-16 0.577350269189623 -0.816496580927728
vn -0.816496580927726 0.577350269189626 0
vn -0.816496580927726 0.577350269189625 0
vn -0.816496580927726 0.577350269189625 -2.79554039790635E-16
vn -0.816496580927726 0.577350269189626 -2.79554039790636E-16
vn 0 0.577350269189625 0.816496580927726
vn 0 0.577350269189628 0.816496580927724
vn 1.00036375881919E-15 0.577350269189629 0.816496580927724
vn 1.00036375881919E-15 0.577350269189625 0.816496580927727
vn 0.816496580927727 0.577350269189624 0
vn 0.816496580927727 0.577350269189624 0
vn -0.816496580927724 0.577350269189628 0
vn -0.816496580927725 0.577350269189627 0
vn -0.816496580927725 0.577350269189627 -3.25460604540445E-16
vn -0.816496580927724 0.577350269189629 -3.25460604540445E-16
vn 0 0.577350269189626 0.816496580927726
vn 0 0.577350269189628 0.816496580927724
vn 7.20809719028548E-16 0.577350269189629 0.816496580927724
vn 7.20809719028551E-16 0.577350269189626 0.816496580927726
vn 0.816496580927726 0.577350269189626 0
vn -0.816496580927725 0.577350269189627 0
vn -0.816496580927726 0.577350269189626 -1.27786047296393E-16
vn -0.816496580927725 0.577350269189627 -1.27786047296393E-16
vn 0.816496580927725 0.577350269189627 0
vn -0.816496580927726 0.577350269189626 0
vn -0.816496580927726 0.577350269189626 0
vn -0.816496580927726 0.577350269189626 6.98885099476589E-17
vn -0.816496580927726 0.577350269189626 6.98885099476589E-17
vn 7.20809719028548E-16 0.577350269189629 0.816496580927724
vn 7.20809719028551E-16 0.577350269189626 0.816496580927726
vn 0.816496580927726 0.577350269189626 0
vn 0.816496580927724 0.577350269189628 0
vn 0.816496580927724 0.577350269189629 -6.74903154278741E-16
vn 0.816496580927726 0.577350269189626 -6.74903154278741E-16
vn -0.816496580927727 0.577350269189624 0
vn -0.816496580927727 0.577350269189625 0
vn -0.816496580927726 0.577350269189625 2.67563067191711E-16
vn -0.816496580927727 0.577350269189624 2.67563067191711E-16
vn 0 0.577350269189628 0.816496580927725
vn 4.41255679237913E-16 0.577350269189628 0.816496580927725
vn 4.41255679237915E-16 0.577350269189626 0.816496580927726
vn 0.816496580927726 0.577350269189625 0
vn 0.816496580927724 0.577350269189629 -1.00036375881919E-15
vn 0.816496580927727 0.577350269189625 -1.00036375881919E-15
vn 0 0.577350269189624 -0.816496580927728
vn -0.816496580927728 0.577350269189624 0
vn -0.816496580927726 0.577350269189625 4.65237624435764E-16
vn -0.816496580927728 0.577350269189623 4.65237624435764E-16
vn 0 0.577350269189626 0.816496580927726
vn 0 0.577350269189628 0.816496580927725
vn 5.11144189185572E-16 0.577350269189628 0.816496580927724
vn 5.11144189185574E-16 0.577350269189626 0.816496580927726
vn 0.816496580927726 0.577350269189626 0
vn 0.816496580927724 0.577350269189628 0
vn 0.816496580927724 0.577350269189629 -7.20809719028548E-16
vn 0.816496580927726 0.577350269189626 -7.20809719028551E-16
vn 0 0.577350269189624 -0.816496580927727
vn 0 0.577350269189624 -0.816496580927727
vn 0 0.577350269189627 0.816496580927725
vn -3.25460604540445E-16 0.577350269189627 0.816496580927725
vn -3.25460604540445E-16 0.577350269189629 0.816496580927724
vn 0 0.577350269189628 0.816496580927724
vn 0.816496580927726 0.577350269189626 0
vn 0.816496580927726 0.577350269189626 0
vn -0.816496580927725 0.577350269189627 0
vn -0.816496580927724 0.577350269189628 0
vn -2.67563067191711E-16 0.577350269189625 -0.816496580927726
vn -2.67563067191711E-16 0.577350269189624 -0.816496580927727
vn -0.816496580927726 0.577350269189626 0
vn -0.816496580927725 0.577350269189628 0
vn -0.816496580927725 0.577350269189628 4.41255679237913E-16
vn -0.816496580927726 0.577350269189626 4.41255679237915E-16
vn 2.79554039790637E-16 0.577350269189629 0.816496580927724
vn 2.79554039790637E-16 0.577350269189627 0.816496580927725
vn -1.27786047296393E-16 0.577350269189626 0.816496580927726
vn -1.27786047296393E-16 0.577350269189627 0.816496580927725
vn 0 0.577350269189626 -0.816496580927726
vn 0.816496580927724 0.577350269189628 0
vn -0.816496580927724 0.577350269189628 0
vn 0 0.577350269189626 -0.816496580927726
vn -6.98885099476589E-17 0.577350269189626 -0.816496580927726
vn -6.98885099476589E-17 0.577350269189626 -0.816496580927726
vn -0.816496580927724 0.577350269189629 7.20809719028548E-16
vn -0.816496580927726 0.577350269189626 7.20809719028551E-16
vn 0 0.577350269189627 0.816496580927725
vn 0 0.577350269189626 0.816496580927726
vn 0 0.577350269189626 0.816496580927726
vn 6.98885099476589E-17 0.577350269189626 0.816496580927726
vn 6.98885099476589E-17 0.577350269189626 0.816496580927726
vn 0.816496580927724 0.577350269189629 -7.20809719028548E-16
vn 0.816496580927726 0.577350269189626 -7.20809719028551E-16
vn 0 0.577350269189627 -0.816496580927725
vn 0 0.577350269189627 -0.816496580927725
vn 0 0.577350269189627 -0.816496580927725
vn 0 0.577350269189626 0.816496580927726
vn 0 0.577350269189626 0.816496580927726
vn 0 0.577350269189626 -0.816496580927726
vn 1.27786047296393E-16 0.577350269189626 -0.816496580927726
vn 1.27786047296393E-16 0.577350269189627 -0.816496580927725
vn -0.816496580927724 0.577350269189629 7.20809719028548E-16
vn -0.816496580927726 0.577350269189626 7.20809719028551E-16
vn 0 0.577350269189624 0.816496580927727
vn 0 0.577350269189625 0.816496580927727
vn 2.67563067191711E-16 0.577350269189625 0.816496580927726
vn 2.67563067191711E-16 0.577350269189624 0.816496580927727
vn 0.816496580927725 0.577350269189628 0
vn 0.816496580927725 0.577350269189628 -4.41255679237913E-16
vn 0.816496580927726 0.577350269189626 -4.41255679237915E-16
vn 0 0.577350269189628 -0.816496580927725
vn 0 0.577350269189628 -0.816496580927724
vn -2.79554039790637E-16 0.577350269189629 -0.816496580927724
vn -2.79554039790637E-16 0.577350269189627 -0.816496580927725
vn 0 0.577350269189628 -0.816496580927724
vn 0 0.577350269189628 -0.816496580927724
vn 0 0.577350269189627 -0.816496580927725
vn 3.25460604540445E-16 0.577350269189627 -0.816496580927725
vn 3.25460604540445E-16 0.577350269189629 -0.816496580927724
vn 0 0.577350269189624 0.816496580927727
vn 0.816496580927726 0.577350269189626 0
vn 0.816496580927726 0.577350269189625 2.79554039790635E-16
vn 0.816496580927726 0.577350269189626 2.79554039790636E-16
vn 0 0.577350269189625 -0.816496580927726
vn -1.00036375881919E-15 0.577350269189629 -0.816496580927724
vn -1.00036375881919E-15 0.577350269189625 -0.816496580927727
vn -0.816496580927728 0.577350269189624 0
vn 0 0.577350269189624 0.816496580927728
vn 4.65237624435764E-16 0.577350269189625 0.816496580927726
vn 4.65237624435764E-16 0.577350269189623 0.816496580927728
vn 0.816496580927725 0.577350269189627 0
vn 0.816496580927725 0.577350269189627 3.25460604540445E-16
vn 0.816496580927724 0.577350269189629 3.25460604540445E-16
vn 0 0.577350269189626 -0.816496580927726
vn -7.20809719028548E-16 0.577350269189629 -0.816496580927724
vn -7.20809719028551E-16 0.577350269189626 -0.816496580927726
vn -0.816496580927727 0.577350269189624 0
vn 0.816496580927726 0.577350269189626 1.27786047296393E-16
vn 0.816496580927725 0.577350269189627 1.27786047296393E-16
vn 0.816496580927726 0.577350269189626 0
vn 0.816496580927726 0.577350269189626 -6.98885099476589E-17
vn 0.816496580927726 0.577350269189626 -6.98885099476589E-17
vn -7.20809719028548E-16 0.577350269189629 -0.816496580927724
vn -7.20809719028551E-16 0.577350269189626 -0.816496580927726
vn -0.816496580927725 0.577350269189627 0
vn 0.816496580927727 0.577350269189625 0
vn 0.816496580927726 0.577350269189625 -2.67563067191711E-16
vn 0.816496580927727 0.577350269189624 -2.67563067191711E-16
vn -4.41255679237913E-16 0.577350269189628 -0.816496580927725
vn -4.41255679237915E-16 0.577350269189626 -0.816496580927726
vn -0.816496580927726 0.577350269189626 0
vn -0.816496580927724 0.577350269189629 6.74903154278741E-16
vn -0.816496580927726 0.577350269189626 6.74903154278741E-16
vn 0 0.577350269189628 -0.816496580927725
vn -5.11144189185572E-16 0.577350269189628 -0.816496580927724
vn -5.11144189185574E-16 0.577350269189626 -0.816496580927726
vn -0.816496580927724 0.577350269189629 1.00036375881919E-15
vn -0.816496580927727 0.577350269189625 1.00036375881919E-15
vn 0 0.577350269189624 0.816496580927728
vn 0.816496580927726 0.577350269189625 -4.65237624435764E-16
vn 0.816496580927728 0.577350269189623 -4.65237624435764E-16
g Button
f 1//1 2//1 3//2 4//2
f 4//3 3//3 3//3 4//3
f 2//4 5//4 6//5 3//5
f 3//3 6//3 6//3 3//3
f 5//6 7//6 8//7 6//7
f 6//3 8//3 8//3 6//3
f 7//8 1//8 4//9 8//9
f 8//3 4//3 4//3 8//3
f 9//10 10//10 11//11 12//11
f 12//3 11//3 11//3 12//3
f 10//12 13//13 14//14 11//15
f 11//3 14//3 14//3 11//3
f 13//16 15//17 16//18 14//19
f 14//3 16//3 16//3 14//3
f 15//20 9//21 12//22 16//23
f 16//3 12//3 12//3 16//3
f 17//24 18//24 19//25 20//25
f 20//3 19//3 19//3 20//3
f 18//12 10//12 21//12 19//12
f 19//3 21//3 21//3 19//3
f 10//26 9//27 22//28 21//29
f 21//3 22//3 22//3 21//3
f 9//30 17//31 20//32 22//33
f 22//3 20//3 20//3 22//3
f 23//34 24//34 25//34 26//34
f 26//3 25//3 25//3 26//3
f 24//12 18//12 27//12 25//12
f 25//3 27//3 27//3 25//3
f 18//35 17//16 28//36 27//37
f 27//3 28//3 28//3 27//3
f 17//30 23//31 26//32 28//33
f 28//3 26//3 26//3 28//3
f 29//1 30//1 31//38 32//38
f 32//3 31//3 31//3 32//3
f 30//12 24//12 33//12 31//12
f 31//3 33//3 33//3 31//3
f 24//39 23//40 34//41 33//42
f 33//3 34//3 34//3 33//3
f 23//30 29//31 32//43 34//44
f 34//3 32//3 32//3 34//3
f 35//45 36//46 37//47 38//48
f 38//3 37//3 37//3 38//3
f 36//12 30//12 39//12 37//12
f 37//3 39//3 39//3 37//3
f 30//49 29//50 40//51 39//52
f 39//3 40//3 40//3 39//3
f 29//30 35//53 38//54 40//55
f 40//3 38//3 38//3 40//3
f 41//56 42//46 43//57 44//58
f 44//3 43//3 43//3 44//3
f 42//12 36//12 45//59 43//59
f 43//3 45//3 45//3 43//3
f 36//60 35//50 46//61 45//62
f 45//3 46//3 46//3 45//3
f 35//63 41//64 44//65 46//66
f 46//3 44//3 44//3 46//3
f 42//67 47//68 48//69 49//70
f 49//3 48//3 48//3 49//3
f 47//71 50//71 51//72 48//72
f 48//3 51//3 51//3 48//3
f 50//60 36//60 52//60 51//60
f 51//3 52//3 52//3 51//3
f 36//21 42//73 49//74 52//75
f 52//3 49//3 49//3 52//3
f 50//71 1//71 53//71 54//71
f 54//3 53//3 53//3 54//3
f 1//49 30//49 55//49 53//49
f 53//3 55//3 55//3 53//3
f 30//31 36//31 56//31 55//31
f 55//3 56//3 56//3 55//3
f 36//68 50//68 54//68 56//68
f 56//3 54//3 54//3 56//3
f 30//1 1//1 57//2 58//2
f 58//3 57//3 57//3 58//3
f 1//71 7//71 59//71 57//71
f 57//3 59//3 59//3 57//3
f 7//6 24//6 60//7 59//7
f 59//3 60//3 60//3 59//3
f 24//31 30//31 58//76 60//76
f 60//3 58//3 58//3 60//3
f 24//77 7//77 61//78 62//78
f 62//3 61//3 61//3 62//3
f 7//71 63//71 64//71 61//71
f 61//3 64//3 64//3 61//3
f 63//35 18//35 65//79 64//79
f 64//3 65//3 65//3 64//3
f 18//31 24//31 62//76 65//76
f 65//3 62//3 62//3 65//3
f 10//31 18//31 66//31 67//31
f 67//3 66//3 66//3 67//3
f 18//24 63//24 68//24 66//24
f 66//3 68//3 68//3 66//3
f 63//71 69//71 70//71 68//71
f 68//3 70//3 70//3 68//3
f 69//80 10//80 67//80 70//80
f 70//3 67//3 67//3 70//3
f 69//71 71//13 72//81 73//82
f 73//3 72//3 72//3 73//3
f 71//83 13//84 74//85 72//86
f 72//3 74//3 74//3 72//3
f 13//53 10//21 75//87 74//88
f 74//3 75//3 75//3 74//3
f 10//10 69//10 73//10 75//10
f 75//3 73//3 73//3 75//3
f 50//8 47//63 76//89 77//90
f 77//3 76//3 76//3 77//3
f 47//67 78//68 79//69 76//70
f 76//3 79//3 79//3 76//3
f 78//91 80//91 81//91 79//91
f 79//3 81//3 81//3 79//3
f 80//60 50//60 77//60 81//60
f 81//3 77//3 77//3 81//3
f 80//4 2//4 82//5 83//5
f 83//3 82//3 82//3 83//3
f 2//49 1//49 84//49 82//49
f 82//3 84//3 84//3 82//3
f 1//8 50//8 85//9 84//9
f 84//3 85//3 85//3 84//3
f 50//68 80//68 83//92 85//92
f 85//3 83//3 83//3 85//3
f 7//77 5//77 86//78 87//78
f 87//3 86//3 86//3 87//3
f 5//4 88//4 89//5 86//5
f 86//3 89//3 89//3 86//3
f 88//35 63//35 90//79 89//79
f 89//3 90//3 90//3 89//3
f 63//8 7//8 87//9 90//9
f 90//3 87//3 87//3 90//3
f 69//8 63//8 91//9 92//9
f 92//3 91//3 91//3 92//3
f 63//24 88//24 93//24 91//24
f 91//3 93//3 93//3 91//3
f 88//4 94//4 95//5 93//5
f 93//3 95//3 95//3 93//3
f 94//80 69//80 92//93 95//93
f 95//3 92//3 92//3 95//3
f 94//91 96//94 97//95 98//96
f 98//3 97//3 97//3 98//3
f 96//83 71//80 99//97 97//98
f 97//3 99//3 99//3 97//3
f 71//8 69//8 100//99 99//99
f 99//3 100//3 100//3 99//3
f 69//10 94//10 98//10 100//10
f 100//3 98//3 98//3 100//3
f 80//100 78//101 101//102 102//103
f 102//3 101//3 101//3 102//3
f 78//67 103//68 104//104 101//105
f 101//3 104//3 104//3 101//3
f 103//106 105//106 106//107 104//107
f 104//3 106//3 106//3 104//3
f 105//60 80//60 102//60 106//60
f 106//3 102//3 102//3 106//3
f 105//106 107//106 108//108 109//108
f 109//3 108//3 108//3 109//3
f 107//49 2//49 110//49 108//49
f 108//3 110//3 110//3 108//3
f 2//109 80//109 111//110 110//110
f 110//3 111//3 111//3 110//3
f 80//68 105//68 109//92 111//92
f 111//3 109//3 109//3 111//3
f 107//106 112//106 113//108 114//108
f 114//3 113//3 113//3 114//3
f 112//6 5//6 115//7 113//7
f 113//3 115//3 115//3 113//3
f 5//109 2//109 116//110 115//110
f 115//3 116//3 116//3 115//3
f 2//1 107//1 114//2 116//2
f 116//3 114//3 114//3 116//3
f 88//109 5//109 117//110 118//110
f 118//3 117//3 117//3 118//3
f 5//77 112//77 119//78 117//78
f 117//3 119//3 119//3 117//3
f 112//106 120//106 121//108 119//108
f 119//3 121//3 121//3 119//3
f 120//35 88//35 118//79 121//79
f 121//3 118//3 118//3 121//3
f 94//109 88//109 122//110 123//110
f 123//3 122//3 122//3 123//3
f 88//24 120//24 124//24 122//24
f 122//3 124//3 124//3 122//3
f 120//106 125//106 126//108 124//108
f 124//3 126//3 126//3 124//3
f 125//80 94//80 123//93 126//93
f 126//3 123//3 123//3 126//3
f 125//106 127//111 128//112 129//113
f 129//3 128//3 128//3 129//3
f 127//83 96//80 130//114 128//115
f 128//3 130//3 130//3 128//3
f 96//100 94//100 131//100 130//100
f 130//3 131//3 131//3 130//3
f 94//10 125//10 129//10 131//10
f 131//3 129//3 129//3 131//3
f 132//60 105//60 133//60 134//60
f 134//3 133//3 133//3 134//3
f 105//116 103//117 135//118 133//119
f 133//3 135//3 135//3 133//3
f 103//67 136//120 137//121 135//122
f 135//3 137//3 137//3 135//3
f 136//123 132//124 134//125 137//126
f 137//3 134//3 134//3 137//3
f 138//49 107//49 139//49 140//49
f 140//3 139//3 139//3 140//3
f 107//116 105//116 141//116 139//116
f 139//3 141//3 141//3 139//3
f 105//68 132//68 142//68 141//68
f 141//3 142//3 142//3 141//3
f 132//127 138//127 140//127 142//127
f 142//3 140//3 140//3 142//3
f 143//6 112//6 144//7 145//7
f 145//3 144//3 144//3 145//3
f 112//116 107//116 146//116 144//116
f 144//3 146//3 146//3 144//3
f 107//1 138//1 147//2 146//2
f 146//3 147//3 147//3 146//3
f 138//127 143//127 145//128 147//128
f 147//3 145//3 145//3 147//3
f 148//35 120//35 149//79 150//79
f 150//3 149//3 149//3 150//3
f 120//116 112//116 151//116 149//116
f 149//3 151//3 151//3 149//3
f 112//77 143//77 152//78 151//78
f 151//3 152//3 152//3 151//3
f 143//127 148//127 150//128 152//128
f 152//3 150//3 150//3 152//3
f 125//116 120//116 153//116 154//116
f 154//3 153//3 153//3 154//3
f 120//24 148//24 155//24 153//24
f 153//3 155//3 155//3 153//3
f 148//127 156//127 157//127 155//127
f 155//3 157//3 157//3 155//3
f 156//80 125//80 154//80 157//80
f 157//3 154//3 154//3 157//3
f 156//124 158//129 159//130 160//131
f 160//3 159//3 159//3 160//3
f 158//83 127//80 161//114 159//115
f 159//3 161//3 161//3 159//3
f 127//116 125//116 162//132 161//132
f 161//3 162//3 162//3 161//3
f 125//10 156//10 160//10 162//10
f 162//3 160//3 160//3 162//3
f 136//133 163//56 164//134 165//135
f 165//3 164//3 164//3 165//3
f 163//136 166//124 167//137 164//138
f 164//3 167//3 167//3 164//3
f 166//60 132//60 168//139 167//139
f 167//3 168//3 168//3 167//3
f 132//140 136//117 165//141 168//142
f 168//3 165//3 165//3 168//3
f 132//46 166//143 169//144 170//145
f 170//3 169//3 169//3 170//3
f 166//146 171//127 172//147 169//148
f 169//3 172//3 172//3 169//3
f 171//49 138//49 173//149 172//149
f 172//3 173//3 173//3 172//3
f 138//140 132//140 170//140 173//140
f 173//3 170//3 170//3 173//3
f 138//1 171//133 174//150 175//151
f 175//3 174//3 174//3 175//3
f 171//146 176//127 177//147 174//148
f 174//3 177//3 177//3 174//3
f 176//39 143//39 178//39 177//39
f 177//3 178//3 178//3 177//3
f 143//140 138//140 175//140 178//140
f 178//3 175//3 175//3 178//3
f 143//34 176//152 179//153 180//154
f 180//3 179//3 179//3 180//3
f 176//146 181//127 182//155 179//156
f 179//3 182//3 182//3 179//3
f 181//35 148//35 183//157 182//157
f 182//3 183//3 183//3 182//3
f 148//140 143//140 180//140 183//140
f 183//3 180//3 180//3 183//3
f 156//140 148//140 184//140 185//140
f 185//3 184//3 184//3 185//3
f 148//24 181//158 186//159 184//160
f 184//3 186//3 186//3 184//3
f 181//146 187//123 188//161 186//162
f 186//3 188//3 188//3 186//3
f 187//163 156//26 185//164 188//165
f 188//3 185//3 185//3 188//3
f 187//111 189//166 190//167 191//168
f 191//3 190//3 190//3 191//3
f 189//17 158//26 192//169 190//170
f 190//3 192//3 192//3 190//3
f 158//140 156//140 193//171 192//171
f 192//3 193//3 193//3 192//3
f 156//10 187//158 191//172 193//173
f 193//3 191//3 191//3 193//3
#h 
